<svg width="19" height="20" viewBox="0 0 19 20" fill="none" xmlns="http://www.w3.org/2000/svg">
<path d="M16.9643 0.375H2.03571C0.911406 0.375 0 1.2984 0 2.4375V17.5625C0 18.7016 0.911406 19.625 2.03571 19.625H16.9643C18.0886 19.625 19 18.7016 19 17.5625V2.4375C19 1.2984 18.0886 0.375 16.9643 0.375ZM16.9643 17.5625H2.03571V2.4375H16.9643V17.5625ZM15.4433 7.17592L8.12364 14.5323C7.9241 14.7329 7.60187 14.7316 7.40393 14.5294L3.55385 10.5971C3.35592 10.3949 3.35719 10.0684 3.55677 9.86787L4.5203 8.89953C4.71985 8.69899 5.04208 8.70028 5.24001 8.90249L7.77583 11.4925L13.7707 5.46761C13.9702 5.26708 14.2925 5.26837 14.4904 5.47054L15.4462 6.4467C15.6441 6.64891 15.6428 6.97539 15.4433 7.17592Z" fill="#BCBCBC"/>
</svg>
